<svg width="42" height="40" viewBox="0 0 42 40" fill="none" xmlns="http://www.w3.org/2000/svg">
<g clip-path="url(#clip0_59_91)">
<path d="M21 4.49175C26.4773 4.49175 27.126 4.5146 29.2801 4.60601C31.282 4.68979 32.3631 5.00972 33.0838 5.27632C34.0367 5.62671 34.7254 6.05327 35.4381 6.7312C36.1588 7.41675 36.5992 8.06421 36.9676 8.97065C37.2479 9.6562 37.5842 10.6921 37.6723 12.5888C37.7684 14.6455 37.7924 15.2625 37.7924 20.465C37.7924 25.6751 37.7684 26.2921 37.6723 28.3412C37.5842 30.2455 37.2479 31.2738 36.9676 31.9593C36.5992 32.8658 36.1508 33.5209 35.4381 34.1988C34.7174 34.8843 34.0367 35.3033 33.0838 35.6537C32.3631 35.9203 31.274 36.2402 29.2801 36.324C27.118 36.4154 26.4693 36.4382 21 36.4382C15.5227 36.4382 14.874 36.4154 12.7199 36.324C10.718 36.2402 9.63691 35.9203 8.91621 35.6537C7.96328 35.3033 7.27461 34.8767 6.56191 34.1988C5.84121 33.5132 5.40078 32.8658 5.03242 31.9593C4.75215 31.2738 4.41582 30.2378 4.32773 28.3412C4.23164 26.2845 4.20762 25.6675 4.20762 20.465C4.20762 15.2548 4.23164 14.6378 4.32773 12.5888C4.41582 10.6845 4.75215 9.6562 5.03242 8.97065C5.40078 8.06421 5.84922 7.40913 6.56191 6.7312C7.28262 6.04565 7.96328 5.62671 8.91621 5.27632C9.63691 5.00972 10.726 4.68979 12.7199 4.60601C14.874 4.5146 15.5227 4.49175 21 4.49175ZM21 0.980225C15.4346 0.980225 14.7379 1.00308 12.5518 1.09448C10.3736 1.18589 8.87617 1.52104 7.57891 2.00093C6.22559 2.50366 5.08047 3.16636 3.94336 4.25562C2.79824 5.33726 2.10156 6.42651 1.57305 7.7062C1.06855 8.9478 0.716211 10.3646 0.620117 12.4365C0.524023 14.5236 0.5 15.1863 0.5 20.4802C0.5 25.7742 0.524023 26.4369 0.620117 28.5164C0.716211 30.5882 1.06855 32.0126 1.57305 33.2466C2.10156 34.5339 2.79824 35.6232 3.94336 36.7048C5.08047 37.7865 6.22559 38.4568 7.5709 38.9519C8.87617 39.4318 10.3656 39.7669 12.5438 39.8583C14.7299 39.9498 15.4266 39.9726 20.992 39.9726C26.5574 39.9726 27.2541 39.9498 29.4402 39.8583C31.6184 39.7669 33.1158 39.4318 34.4131 38.9519C35.7584 38.4568 36.9035 37.7865 38.0406 36.7048C39.1777 35.6232 39.8824 34.5339 40.4029 33.2543C40.9074 32.0126 41.2598 30.5959 41.3559 28.524C41.452 26.4445 41.476 25.7818 41.476 20.4878C41.476 15.1939 41.452 14.5312 41.3559 12.4517C41.2598 10.3798 40.9074 8.95542 40.4029 7.72144C39.8984 6.42651 39.2018 5.33726 38.0566 4.25562C36.9195 3.17397 35.7744 2.50366 34.4291 2.00854C33.1238 1.52866 31.6344 1.19351 29.4563 1.1021C27.2621 1.00308 26.5654 0.980225 21 0.980225Z" fill="white"/>
<path d="M21 10.4636C15.1863 10.4636 10.4697 14.9501 10.4697 20.4802C10.4697 26.0103 15.1863 30.4968 21 30.4968C26.8137 30.4968 31.5303 26.0103 31.5303 20.4802C31.5303 14.9501 26.8137 10.4636 21 10.4636ZM21 26.9777C17.2283 26.9777 14.1693 24.0679 14.1693 20.4802C14.1693 16.8925 17.2283 13.9828 21 13.9828C24.7717 13.9828 27.8307 16.8925 27.8307 20.4802C27.8307 24.0679 24.7717 26.9777 21 26.9777Z" fill="white"/>
<path d="M34.4051 10.0675C34.4051 11.3624 33.3 12.406 31.9467 12.406C30.5854 12.406 29.4883 11.3548 29.4883 10.0675C29.4883 8.77256 30.5934 7.729 31.9467 7.729C33.3 7.729 34.4051 8.78018 34.4051 10.0675Z" fill="white"/>
</g>
<defs>
<clipPath id="clip0_59_91">
<rect width="41" height="39" fill="white" transform="translate(0.5 0.980225)"/>
</clipPath>
</defs>
</svg>
