<svg width="20" height="14" viewBox="0 0 20 14" fill="none" xmlns="http://www.w3.org/2000/svg">
<path d="M16.2945 1.68701L3.27814 4.15679C2.29517 4.34317 2.22644 5.21198 3.17455 5.46033L7.97763 6.71174C8.1662 6.76087 8.38211 6.73209 8.52438 6.63926L11.485 4.70737C11.8756 4.45886 12.5087 4.45886 12.8993 4.70737C13.2898 4.95589 13.2898 5.35881 12.8993 5.60733L9.86321 7.49144C9.7173 7.58199 9.67236 7.71983 9.74962 7.83985L11.7175 10.8968C12.1073 11.4989 13.4708 11.4552 13.7632 10.8309L17.6464 2.54705C17.8934 2.0207 17.1225 1.53028 16.2945 1.68701Z" fill="white"/>
<path d="M1.81289 7.97956C1.9103 8.0416 2.03775 8.07259 2.16507 8.07259C2.29302 8.07259 2.42047 8.0416 2.51738 7.97956L4.10237 6.97123C4.29732 6.84752 4.29732 6.64667 4.10237 6.52305C3.90791 6.39904 3.59283 6.39904 3.39788 6.52305L1.81289 7.53138C1.61795 7.65509 1.61795 7.85593 1.81289 7.97956Z" fill="white"/>
<path d="M3.44831 10.6656C3.32099 10.6656 3.19354 10.6346 3.09613 10.5725C2.90118 10.4489 2.90118 10.2481 3.09613 10.1243L6.07772 8.22754C6.27266 8.10352 6.58775 8.10352 6.78221 8.22754C6.97715 8.35116 6.97715 8.552 6.78221 8.67571L3.80049 10.5729C3.70296 10.6349 3.57563 10.6656 3.44831 10.6656Z" fill="white"/>
<path d="M7.17185 11.3889C7.26926 11.451 7.39671 11.4819 7.52403 11.4819C7.65198 11.4819 7.77943 11.451 7.87634 11.3889L9.46133 10.3806C9.65627 10.2569 9.65627 10.056 9.46133 9.9324C9.26687 9.80839 8.95179 9.80839 8.75684 9.9324L7.17185 10.9407C6.97691 11.0644 6.97691 11.2653 7.17185 11.3889Z" fill="white"/>
</svg>
