<svg width="132" height="43" viewBox="0 0 132 43" fill="none" xmlns="http://www.w3.org/2000/svg">
<g clip-path="url(#clip0_56_220)">
<path fill-rule="evenodd" clip-rule="evenodd" d="M42.2377 21.7096C42.1973 9.83891 32.8343 1.00969 21.1477 0.919876C9.07473 1.02836 0.300905 10.3742 0.0749606 20.8711C-0.18109 32.7558 9.16956 41.858 20.6176 42.0758C33.1683 42.3145 42.2744 32.591 42.2377 21.7096ZM17.3498 24.6127C17.1355 24.6125 16.9213 24.6124 16.707 24.6124C16.4726 24.6119 16.2385 24.6126 16.0042 24.613C15.5824 24.6137 15.1607 24.6143 14.7391 24.6099C13.8291 24.6003 13.5247 24.1018 13.9884 23.2971C14.4339 22.5235 14.9054 21.7643 15.3769 21.0052C15.5602 20.71 15.7436 20.4149 15.9254 20.1188C18.0769 16.6137 20.2302 13.1096 22.3852 9.60655C22.777 9.07067 23.4729 8.83488 24.1207 9.01852C24.3751 9.10906 24.3363 9.28193 24.3003 9.44262C24.2934 9.47349 24.2865 9.50392 24.2819 9.53322C24.0898 10.7516 23.8889 11.9685 23.6792 13.1839L23.6539 13.3303C23.3942 14.8341 23.1346 16.3378 22.8511 17.8373C22.7529 18.3578 23.0298 18.4102 23.4372 18.408C24.7494 18.3989 26.0615 18.3989 27.3737 18.408C28.5141 18.4163 28.8191 18.9296 28.2378 19.8791C25.4392 24.4438 22.6392 29.0077 19.8379 33.5707C19.617 33.9308 18.5483 34.1906 18.1575 33.9865C17.9661 33.8865 17.999 33.7406 18.032 33.5941C18.0386 33.5649 18.0452 33.5356 18.05 33.5067C18.3522 31.6814 18.6554 29.8562 18.9597 28.0313C19 27.79 19.0395 27.5486 19.0791 27.3072C19.1983 26.5799 19.3175 25.8524 19.4555 25.1282C19.5391 24.6896 19.3145 24.6105 18.9561 24.6116C18.4207 24.6133 17.8852 24.613 17.3498 24.6127Z" fill="#878587"/>
<path d="M97.6487 22.6605C97.2698 23.6241 96.888 24.5951 96.5023 25.5765C96.4482 25.4666 96.4003 25.3736 96.3576 25.2905C96.28 25.1396 96.2198 25.0223 96.1712 24.9006C94.2254 20.0425 92.2894 15.1807 90.3633 10.3152C90.2659 9.92931 89.8903 9.67387 89.4857 9.71839C87.5172 9.73871 85.5481 9.73569 83.5793 9.72086C83.0785 9.71729 82.8711 9.87796 82.872 10.3951C82.8842 17.7598 82.884 25.1244 82.8714 32.4889C82.8706 32.963 83.0599 33.053 83.4947 33.047C85.0414 33.0256 86.5892 33.0121 88.1351 33.0519C88.7263 33.0673 88.8833 32.8907 88.8793 32.323C88.8566 28.9926 88.8571 25.6621 88.8576 22.3315C88.8577 21.6596 88.8578 20.9877 88.8577 20.3158C88.8577 20.2753 88.855 20.2339 88.8524 20.192C88.8408 20.0093 88.8286 19.8167 89.0304 19.6402C89.1033 19.8414 89.1757 20.0403 89.2475 20.2377C89.4186 20.7078 89.5865 21.1693 89.7508 21.6322C89.99 22.3061 90.2294 22.98 90.4688 23.6539C91.4904 26.5291 92.5119 29.4044 93.5195 32.284C93.7066 32.819 93.9379 33.0948 94.5966 33.058C95.8113 32.9899 97.0341 33.0088 98.2514 33.0519C98.7992 33.0712 99.071 32.9262 99.2536 32.3972C100.084 29.9876 100.938 27.5858 101.792 25.1841C102.017 24.552 102.242 23.92 102.466 23.2878C102.76 22.458 103.058 21.6293 103.356 20.8007C103.492 20.4207 103.629 20.0406 103.765 19.6605C103.873 19.8491 103.924 20.0634 103.913 20.279C103.913 21.1533 103.913 22.0275 103.914 22.9018C103.915 26.03 103.916 29.1582 103.894 32.2862C103.89 32.8959 104.073 33.0693 104.691 33.0522C106.213 33.0102 107.738 33.019 109.261 33.0492C109.778 33.0594 109.946 32.9187 109.945 32.3975C109.929 25.0785 109.929 17.7596 109.944 10.4407C109.945 9.91229 109.796 9.7107 109.235 9.71729C107.266 9.74146 105.297 9.73651 103.328 9.72003C102.948 9.66743 102.587 9.89987 102.487 10.2619C101.791 12.0993 101.076 13.9302 100.359 15.7604C99.4629 18.0468 98.5642 20.3323 97.6487 22.6605Z" fill="#878587"/>
<path fill-rule="evenodd" clip-rule="evenodd" d="M69.5174 9.73138C69.2481 9.72914 68.9788 9.7269 68.7095 9.7269C68.4377 9.7269 68.1659 9.72824 67.8941 9.72958C67.2286 9.73286 66.5631 9.73614 65.898 9.71976C65.5185 9.65855 65.1552 9.89461 65.0666 10.26C63.915 13.3527 62.7488 16.4404 61.5826 19.5282C61.2722 20.3499 60.9619 21.1716 60.6518 21.9934C60.3791 22.7161 60.1066 23.4388 59.8341 24.1616C58.7936 26.9212 57.7532 29.6807 56.7007 32.4359C56.5339 32.8721 56.5477 33.053 57.0947 33.0465C58.8287 33.0227 60.5624 33.0236 62.2959 33.0492C62.7188 33.0552 62.8581 32.8635 62.9706 32.5293C63.1264 32.0663 63.2883 31.6053 63.4502 31.1443C63.6592 30.5494 63.8681 29.9545 64.0638 29.3557C64.1274 28.9854 64.48 28.7307 64.8615 28.7795C67.3685 28.7998 69.8755 28.8001 72.3823 28.7803C72.7866 28.7191 73.1664 28.9861 73.2349 29.3799C73.3976 29.8967 73.5805 30.4074 73.7635 30.9181C73.9425 31.4178 74.1216 31.9175 74.2816 32.423C74.4271 32.8819 74.6356 33.0651 75.1592 33.0528C76.3243 33.0249 77.4904 33.0297 78.6564 33.0345C79.1307 33.0365 79.6049 33.0385 80.0791 33.0382C80.8821 33.0379 80.8914 33.0335 80.6148 32.303C80.0453 30.7977 79.4737 29.2933 78.9021 27.7889C78.1842 25.8994 77.4663 24.0099 76.7526 22.1189C75.2703 18.1888 73.7936 14.2567 72.3224 10.3226C72.2375 9.92986 71.8581 9.66635 71.4501 9.71674C70.8069 9.74212 70.1621 9.73675 69.5174 9.73138ZM69.324 24.3224C69.1026 24.3238 68.8813 24.3252 68.66 24.3252C68.4385 24.3251 68.217 24.324 67.9955 24.323C67.4443 24.3204 66.893 24.3178 66.3421 24.3301C65.9498 24.3389 65.837 24.2241 65.9712 23.8467C66.7951 21.5248 67.6139 19.2014 68.4276 16.8764C68.4341 16.8578 68.4403 16.8387 68.4466 16.8194C68.4857 16.6988 68.5265 16.5729 68.6555 16.5643C68.8328 16.5528 68.8483 16.6762 68.8635 16.7963C68.8689 16.839 68.8742 16.8813 68.8868 16.917C69.1527 17.6732 69.4178 18.4298 69.6829 19.1863C70.2244 20.7319 70.766 22.2774 71.3148 23.8206C71.4648 24.2417 71.3244 24.3433 70.9082 24.3312C70.3804 24.3159 69.8521 24.3192 69.324 24.3224Z" fill="#878587"/>
<path fill-rule="evenodd" clip-rule="evenodd" d="M113.704 18.6261C113.703 19.5343 113.702 20.4425 113.702 21.3507C113.702 22.2288 113.703 23.1069 113.703 23.985C113.705 26.7874 113.707 29.5897 113.692 32.392C113.689 32.8888 113.805 33.0651 114.351 33.0519C115.897 33.0137 117.443 33.0135 118.988 33.0514C119.554 33.0654 119.705 32.8894 119.699 32.3565C119.688 31.3439 119.689 30.3311 119.691 29.3183C119.692 28.0679 119.694 26.8175 119.672 25.5674C119.662 24.9923 119.857 24.8918 120.382 24.9055C121.576 24.9365 122.775 24.9643 123.965 24.8918C125.855 24.7764 127.673 24.3595 129.19 23.1697C131.456 21.3922 132.14 19.0428 131.877 16.2793C131.484 12.1463 128.362 9.89169 124.518 9.6857C122.447 9.57471 120.374 9.58774 118.301 9.60077C117.024 9.6088 115.748 9.61682 114.472 9.59589C113.843 9.58545 113.685 9.7843 113.689 10.3778C113.709 13.1272 113.707 15.8767 113.704 18.6261ZM119.691 17.9873C119.69 17.7487 119.688 17.51 119.688 17.2713C119.688 17.0048 119.688 16.7384 119.689 16.4719C119.689 15.9155 119.689 15.3591 119.686 14.8027C119.686 14.7853 119.686 14.7679 119.686 14.7505C119.683 14.5332 119.68 14.327 120.017 14.3435C120.457 14.365 120.898 14.355 121.34 14.3449C122.183 14.3257 123.027 14.3065 123.862 14.5075C124.925 14.7323 125.714 15.6088 125.805 16.6673C126.028 19.0024 125.061 20.0884 122.591 20.2296C122.153 20.2545 121.714 20.2502 121.275 20.2458C120.918 20.2422 120.56 20.2387 120.202 20.251C119.799 20.265 119.67 20.1266 119.681 19.7396C119.698 19.1558 119.695 18.5716 119.691 17.9873Z" fill="#878587"/>
</g>
<defs>
<clipPath id="clip0_56_220">
<rect width="131.86" height="42" fill="white" transform="translate(0.0698242 0.5)"/>
</clipPath>
</defs>
</svg>
