<svg width="132" height="43" viewBox="0 0 132 43" fill="none" xmlns="http://www.w3.org/2000/svg">
<path d="M55.3301 31.6468H55.2739C55.2992 31.6468 55.3161 31.6723 55.3413 31.6748H55.3582L55.3301 31.6493V31.6468ZM55.3413 31.6748C55.0802 31.6774 54.4231 31.8025 53.7296 31.8025C51.5395 31.8025 50.7813 30.8835 50.7813 29.6838V21.6915H55.2459C55.4986 21.6915 55.6951 21.4873 55.6951 21.2065V16.8671C55.6951 16.6373 55.4705 16.4331 55.2459 16.4331H50.7813V11.0471C50.7813 10.8429 50.6409 10.7153 50.3882 10.7153H44.3232C44.0705 10.7153 43.9301 10.8429 43.9301 11.0471V16.5863C43.9301 16.5863 40.8695 17.2755 40.673 17.301C40.4483 17.3521 40.3079 17.5308 40.3079 17.735V21.2065C40.3079 21.4873 40.5326 21.6915 40.7853 21.6915H43.902V30.0641C43.902 36.2925 48.6754 36.9307 51.9326 36.9307C53.4207 36.9307 55.2178 36.4967 55.4986 36.3691C55.667 36.318 55.7513 36.1394 55.7513 35.9607V32.1317C55.7551 32.0231 55.7158 31.9169 55.6405 31.8325C55.5652 31.7481 55.459 31.6913 55.3413 31.6723V31.6748ZM121.877 26.0565C121.877 21.4363 119.827 20.8236 117.665 21.0279C115.98 21.13 114.633 21.8957 114.633 21.8957V30.881C114.633 30.881 116.008 31.7489 118.058 31.7999C120.95 31.8765 121.877 30.932 121.877 26.0565ZM128.7 25.6481C128.7 34.4036 125.583 36.9051 120.136 36.9051C115.531 36.9051 113.06 34.7865 113.06 34.7865C113.06 34.7865 112.948 35.9607 112.807 36.1138C112.723 36.267 112.583 36.318 112.414 36.318H108.259C107.978 36.318 107.725 36.1138 107.725 35.8841L107.781 7.52449C107.781 7.29475 108.006 7.09055 108.259 7.09055H114.239C114.492 7.09055 114.717 7.29475 114.717 7.52449V17.1479C114.717 17.1479 117.019 15.795 120.389 15.795L120.361 15.7439C123.73 15.7439 128.7 16.8926 128.7 25.6481V25.6481ZM104.215 16.4331H98.3188C98.0099 16.4331 97.8414 16.6373 97.8414 16.9181V30.8044C97.8414 30.8044 96.2971 31.7999 94.1912 31.7999C92.0853 31.7999 91.4675 30.932 91.4675 29.0176V16.8926C91.4675 16.6629 91.2429 16.4587 90.9902 16.4587H84.9813C84.7286 16.4587 84.504 16.6629 84.504 16.8926V29.9365C84.504 35.5523 87.9577 36.9562 92.703 36.9562C96.606 36.9562 99.7789 34.9907 99.7789 34.9907C99.7789 34.9907 99.9193 35.9862 100.003 36.1394C100.06 36.267 100.256 36.3691 100.453 36.3691H104.215C104.524 36.3691 104.693 36.1649 104.693 35.9352L104.749 16.8671C104.749 16.6373 104.524 16.4331 104.215 16.4331V16.4331ZM37.6685 16.4076H31.6877C31.435 16.4076 31.2104 16.6373 31.2104 16.9181V35.6544C31.2104 36.1649 31.5754 36.3436 32.0528 36.3436H37.4439C38.0055 36.3436 38.1459 36.1138 38.1459 35.6544V16.8416C38.1459 16.6118 37.9212 16.4076 37.6685 16.4076V16.4076ZM34.7202 7.77975C32.5582 7.77975 30.8454 9.33685 30.8454 11.3024C30.8454 13.2679 32.5582 14.825 34.7202 14.825C36.8262 14.825 38.539 13.2679 38.539 11.3024C38.539 9.33685 36.8262 7.77975 34.7202 7.77975ZM81.0222 7.1416H75.0976C74.8449 7.1416 74.6202 7.34581 74.6202 7.57554V18.0158H65.3262V7.57554C65.3262 7.34581 65.1015 7.1416 64.8488 7.1416H58.868C58.6153 7.1416 58.3907 7.34581 58.3907 7.57554V35.9352C58.3907 36.1649 58.6434 36.3691 58.868 36.3691H64.8488C65.1015 36.3691 65.3262 36.1649 65.3262 35.9352V23.8102H74.6202L74.5641 35.9352C74.5641 36.1649 74.7887 36.3691 75.0414 36.3691H81.0222C81.2749 36.3691 81.4996 36.1649 81.4996 35.9352V7.57554C81.4996 7.34581 81.2749 7.1416 81.0222 7.1416V7.1416ZM28.0375 19.7005V34.3525C28.0375 34.4546 28.0094 34.6333 27.869 34.6844C27.869 34.6844 24.3592 36.9562 18.5749 36.9562C11.5833 36.9562 3.30005 34.9652 3.30005 21.8447C3.30005 8.72422 10.5444 6.01844 17.6202 6.04397C23.7414 6.04397 26.2124 7.29475 26.6055 7.52449C26.7178 7.65212 26.7739 7.75423 26.7739 7.88186L25.5946 12.4255C25.5946 12.6553 25.3419 12.936 25.0331 12.8595C24.0222 12.5787 22.506 12.0171 18.9399 12.0171C14.8124 12.0171 10.3759 13.0892 10.3759 21.5384C10.3759 29.9875 14.5877 30.9831 17.6202 30.9831C20.2035 30.9831 21.1301 30.7023 21.1301 30.7023V24.8313H17.0025C16.6936 24.8313 16.469 24.627 16.469 24.3973V19.7005C16.469 19.4708 16.6936 19.2665 17.0025 19.2665H27.504C27.8129 19.2665 28.0375 19.4708 28.0375 19.7005Z" fill="#878587"/>
</svg>
