<svg width="88" height="51" viewBox="0 0 88 51" fill="none" xmlns="http://www.w3.org/2000/svg">
<g clip-path="url(#clip0_56_217)">
<path fill-rule="evenodd" clip-rule="evenodd" d="M84.8863 22.3427C84.8863 23.9027 83.6658 25.2402 82.0645 25.2402C80.6907 25.2402 79.4712 24.0515 79.4712 22.7145C79.4712 22.4914 79.547 22.1944 79.6234 21.9719H79.4712C76.8015 23.9032 75.5041 30.961 74.7411 33.4135H69.4018L72.9103 21.7488L70.7745 21.6744L71.3843 20.1143H78.6308L77.9447 22.4175C78.8599 21.0057 80.3858 19.8174 82.2162 19.8174C83.6658 19.8169 84.8863 20.9313 84.8863 22.3427V22.3427ZM87.4028 25.4628C87.4028 7.11214 58.799 0.5 43.9242 0.5C29.3548 0.5 0.597229 7.03777 0.597229 25.3141C0.597229 35.4926 10.208 42.4011 18.9805 45.8931H19.0568L27.3712 18.0337C29.1257 12.0903 31.7954 5.92387 39.1946 5.92387C41.7879 5.92387 45.2206 7.03828 45.2206 10.1584C45.2206 11.8672 43.9242 13.5012 42.0933 13.5012C40.5679 13.5012 39.271 12.3129 39.271 10.8272C39.271 9.04403 40.6437 8.1527 42.3219 8.07834C41.7879 7.11213 40.5679 6.74083 39.4995 6.74083C34.4656 6.74083 33.3214 16.7706 32.253 20.1138H41.4825L37.5165 33.4125H32.1771L35.6856 21.7478H31.7959L26.4561 39.3553C25.6173 42.1786 24.5494 44.7787 24.0149 47.6768C30.3463 49.5338 37.1352 50.5 43.7715 50.5C58.5704 50.5 87.4028 44.1853 87.4028 25.4628V25.4628ZM69.2491 24.5715C69.2491 25.4628 69.0969 26.429 68.7915 27.246H59.4093C59.028 28.3604 58.5704 29.6974 58.5704 30.8857C58.5704 31.9262 59.1802 32.3719 60.0954 32.3719C61.8499 32.3719 62.4596 29.9205 62.9172 28.6573H68.4103C67.3419 32.0011 63.6802 34.0812 60.2475 34.0812C56.5869 34.0812 53.8404 32.2975 53.8404 28.5091C53.8404 23.5314 57.8838 19.4451 63.0704 19.4451C66.2745 19.4451 69.2491 20.9313 69.2491 24.5715ZM55.4427 20.1138L47.1278 31.8519L52.01 31.9262L51.5525 33.4125H39.7291L47.9671 21.6739H43.1612L43.6188 20.1138H55.4427V20.1138ZM25.6167 18.6281C25.6167 25.3885 20.5823 27.246 14.5563 27.246H13.1072L11.1242 33.4125H5.78437L11.1242 15.2105V15.1361H8.83579L9.21702 13.5766H19.1332C22.6422 13.5766 25.6167 14.6905 25.6167 18.6281V18.6281ZM64.4432 22.4914C64.4432 21.6744 63.8334 21.08 62.9941 21.08C61.0116 21.08 60.3244 24.2002 59.9432 25.6864H63.7571C63.9856 24.5715 64.4432 23.5314 64.4432 22.4914V22.4914ZM20.0484 17.2162C20.0484 15.7305 19.2096 15.1361 17.6836 15.1361H16.7684L13.5648 25.6859H14.6327C18.4466 25.7603 20.0484 20.3369 20.0484 17.2162V17.2162Z" fill="#878587"/>
</g>
<defs>
<clipPath id="clip0_56_217">
<rect width="86.8055" height="50" fill="white" transform="translate(0.597229 0.5)"/>
</clipPath>
</defs>
</svg>
