<svg width="128" height="43" viewBox="0 0 128 43" fill="none" xmlns="http://www.w3.org/2000/svg">
<g clip-path="url(#clip0_56_218)">
<path d="M66.1836 14.0059C66.1111 19.7956 71.2802 23.0266 75.1742 24.9475C79.1751 26.9186 80.5189 28.1824 80.5036 29.9448C80.4731 32.6426 77.3121 33.833 74.3534 33.8793C69.1919 33.9605 66.1913 32.4686 63.8052 31.3401L61.946 40.1482C64.3397 41.2652 68.772 42.2392 73.3684 42.2817C84.1571 42.2817 91.2159 36.8901 91.2541 28.5303C91.2961 17.9211 76.7585 17.3336 76.8578 12.5913C76.8921 11.1536 78.2474 9.61921 81.2175 9.22885C82.6873 9.03174 86.7455 8.88101 91.3457 11.026L93.1515 2.50389C90.6776 1.59177 87.4975 0.718295 83.5386 0.718295C73.3837 0.718295 66.2409 6.18329 66.1836 14.0059ZM110.503 1.45263C108.533 1.45263 106.872 2.61597 106.131 4.40157L90.7196 41.6556H101.501L103.646 35.6533H116.821L118.065 41.6556H127.568L119.276 1.45263H110.503ZM112.011 12.3131L115.122 27.4095H106.601L112.011 12.3131ZM53.112 1.45263L44.6139 41.6556H54.8872L63.3815 1.45263H53.112ZM37.914 1.45263L27.2208 28.8163L22.8954 5.54945C22.3876 2.95222 20.3834 1.45263 18.1577 1.45263H0.676702L0.432373 2.61984C4.02096 3.40828 8.0982 4.67984 10.5682 6.04029C12.08 6.87125 12.5114 7.59786 13.0077 9.57283L21.2003 41.6556H32.0577L48.7026 1.45263H37.914Z" fill="#878587"/>
</g>
<defs>
<clipPath id="clip0_56_218">
<rect width="127.135" height="42" fill="white" transform="translate(0.432373 0.5)"/>
</clipPath>
</defs>
</svg>
