<svg width="102" height="43" viewBox="0 0 102 43" fill="none" xmlns="http://www.w3.org/2000/svg">
<g clip-path="url(#clip0_56_219)">
<path d="M0 0.616174C0 0.616174 4.04321 0.0841742 6.73869 2.57498C8.40246 4.11168 8.88738 6.56062 8.88738 6.56062L14.392 28.9168L18.9703 10.6195C19.4151 8.67467 20.2194 6.26933 21.4902 4.64368C23.1122 2.57324 26.4046 2.44242 26.7558 2.44242C27.1069 2.44242 30.3977 2.57324 32.018 4.64368C33.2888 6.26933 34.0931 8.67292 34.5395 10.6195L39.1178 28.9168L44.6208 6.56062C44.6208 6.56062 45.1074 4.11168 46.7712 2.57498C49.4667 0.0841742 53.5082 0.616174 53.5082 0.616174L42.9671 42.3965C42.9671 42.3965 39.4907 42.6599 37.75 41.7302C35.4642 40.5092 34.379 39.5673 32.9945 33.881C32.2948 30.9726 31.6036 28.062 30.9211 25.1492L30.6619 24.0521C29.9311 20.9438 29.2021 17.8477 28.6888 15.6936L28.4379 14.647C28.2072 13.6981 28.0483 13.0597 27.9915 12.8679C27.836 12.3428 27.6504 11.0922 26.7541 11.0922C25.8779 11.0922 25.6756 12.3446 25.5167 12.8679C25.4582 13.0597 25.2993 13.6964 25.0703 14.647L24.8194 15.6936C24.2855 17.9321 23.756 20.1717 23.2309 22.4125L22.9734 23.5044C22.1637 26.9663 21.3443 30.4258 20.5154 33.8827C19.1309 39.5673 18.044 40.5109 15.7582 41.7302C14.0175 42.6599 10.5411 42.3965 10.5411 42.3965L0 0.616174ZM63.5376 7.54613V9.05491H63.541V34.2752C63.5226 39.4504 63.0427 40.5999 60.9559 41.7912C59.3339 42.7174 56.8525 42.3668 56.8525 42.3668V14.115C56.8525 12.6969 57.2738 11.7672 58.8272 10.9335C59.7553 10.4346 60.6198 10.0526 61.5194 9.48749C62.7484 8.72002 63.3721 7.80777 63.5092 7.59148L63.5376 7.54613ZM66.8852 0.755715C66.8852 0.755715 72.3314 -0.250724 75.0285 2.41276C76.5451 3.91109 78.2223 6.46468 78.6019 7.05425L78.6738 7.16588L78.6821 7.17983L83.431 14.6034C83.6601 14.9889 83.9611 15.4093 84.4426 15.4093C84.9225 15.4093 85.2252 14.9906 85.4559 14.6034L90.2031 7.17983L90.2115 7.16588L90.2834 7.05425C90.6629 6.46468 92.3401 3.91109 93.8584 2.41102C96.5539 -0.250724 102 0.753971 102 0.753971L89.0962 21.5735L101.965 42.325C101.965 42.325 96.3933 43.1029 93.6962 40.4394C91.9706 38.737 90.2031 35.9654 90.2031 35.9654L85.4543 28.5436C85.2252 28.1563 84.9225 27.736 84.4426 27.736C83.9611 27.736 83.6601 28.1546 83.4293 28.5436L78.6821 35.9654C78.6821 35.9654 77.0117 38.737 75.2877 40.4394C72.5906 43.1029 66.9187 42.325 66.9187 42.325L79.7874 21.5735L66.8852 0.755715ZM63.5243 0.569079H63.541C63.541 3.34246 63.2902 4.99078 61.6849 6.27107C60.9397 6.86849 60.118 7.35405 59.2436 7.71358C58.357 8.07438 57.5452 8.60971 56.8525 9.29039C56.8525 4.23901 57.5598 2.40928 59.461 1.32609C60.6432 0.652804 62.5845 0.576056 63.2818 0.569079H63.5243Z" fill="#878587"/>
</g>
<defs>
<clipPath id="clip0_56_219">
<rect width="102" height="42" fill="white" transform="translate(0 0.5)"/>
</clipPath>
</defs>
</svg>
